<svg width="2000" height="425" viewBox="0 0 2000 425" fill="none" xmlns="http://www.w3.org/2000/svg">
<path d="M325.826 333.03C301.032 333.03 277.322 325.567 257.101 311.486C246.871 304.384 234.956 300.533 222.679 300.533C210.403 300.533 199.33 304.144 189.701 311.004C169.361 325.447 145.289 333.03 120.255 333.03C95.2204 333.03 56.2245 319.79 33.2362 295.839C10.3683 271.888 -1.42675 240.354 0.137898 207.136C1.58219 177.407 13.979 149.364 35.162 128.061C56.3449 106.757 84.3882 94.2401 114.117 92.7958C116.163 92.7958 118.088 92.6754 120.134 92.6754C144.928 92.6754 168.639 100.138 188.859 114.219C199.089 121.321 211.004 125.172 223.281 125.172C235.557 125.172 246.63 121.561 256.259 114.701C276.599 100.258 300.671 92.6754 325.705 92.6754C350.74 92.6754 389.735 105.915 412.724 129.866C435.592 153.817 447.387 185.351 445.822 218.569C444.378 248.298 431.981 276.341 410.798 297.644C389.615 318.948 361.572 331.465 331.843 332.909C329.797 332.909 327.872 333.03 325.826 333.03ZM222.679 266.833C237.844 266.833 252.528 271.527 265.165 280.313C279.006 289.942 295.255 294.997 312.105 294.997C328.955 294.997 314.873 294.997 316.197 294.997C336.417 294.034 355.674 285.488 370.117 270.925C384.68 256.362 393.105 237.225 394.068 216.884C395.152 194.137 387.088 172.593 371.441 156.224C355.795 139.856 334.612 130.829 311.984 130.829C289.357 130.829 278.405 136.004 264.564 145.873C252.528 154.419 238.205 158.992 223.281 158.992C208.116 158.992 193.432 154.299 180.795 145.512C166.954 135.884 150.705 130.829 133.855 130.829C117.005 130.829 131.087 130.829 129.763 130.829C109.543 131.792 90.2858 140.337 75.8428 154.9C61.2796 169.464 52.8545 188.6 51.8917 208.941C50.8085 231.688 58.8724 253.232 74.5189 269.601C90.1654 285.97 111.348 294.997 133.976 294.997C156.603 294.997 167.555 289.821 181.396 279.952C193.432 271.406 207.755 266.833 222.679 266.833Z" fill="white"/>
<path d="M482.29 424.983V97.61H534.044V104.591C534.044 111.933 533.563 118.071 532.118 127.218L531.878 129.144L537.775 131.31L538.738 129.625C554.264 103.628 579.9 89.7867 612.999 89.7867C672.696 89.7867 712.896 139.374 712.896 213.274C712.896 287.173 670.891 334.835 610.592 334.835C550.292 334.835 555.829 323.04 538.738 295.478L537.655 293.793L531.757 295.959L531.998 297.885C533.322 307.032 533.924 313.17 533.924 320.031V424.742H482.17L482.29 424.983ZM596.149 129.625C557.514 129.625 531.637 162.964 531.637 212.552C531.637 262.139 558.116 295.959 596.149 295.959C634.182 295.959 660.179 262.5 660.179 212.552C660.179 162.603 635.024 129.625 596.149 129.625Z" fill="white"/>
<path d="M853.594 330.743C829.281 330.743 810.867 324.605 798.831 312.689C786.555 300.413 780.296 281.637 780.296 256.602V137.448H726.616V97.7304H780.296V12.6376H832.05V97.7304H890.062V137.448H832.05V247.937C832.05 276.341 844.928 290.664 870.444 290.664C895.96 290.664 880.072 290.303 884.766 289.821V327.373C877.906 329.178 865.629 330.863 853.594 330.863V330.743Z" fill="white"/>
<path d="M919.189 326.41V97.7304H970.942V326.41H919.189ZM918.226 54.6423V0H972.387V54.6423H918.226Z" fill="white"/>
<path d="M1307.58 326.41V190.285C1307.58 152.252 1291.58 129.625 1264.86 129.625C1238.14 129.625 1216.23 155.502 1216.23 192.693V326.41H1164.48V190.285C1164.48 151.771 1148.83 129.625 1121.75 129.625C1094.67 129.625 1073.61 155.021 1073.61 192.693V326.41H1021.85V97.7305H1073.61V104.711C1073.61 113.016 1073.01 120.598 1071.68 127.218L1071.32 129.264L1077.46 131.431L1078.42 129.625C1086.73 114.821 1106.1 89.9072 1143.41 89.9072C1180.73 89.9072 1193.48 110.849 1201.91 131.671L1204.68 138.411L1208.41 132.153C1219.96 112.655 1246.2 89.9072 1281.71 89.9072C1317.21 89.9072 1359.34 126.737 1359.34 181.499V326.29H1307.58V326.41Z" fill="white"/>
<path d="M1486.67 335.076C1463.45 335.076 1443.59 327.132 1429.26 312.208C1413.86 296.2 1405.67 272.49 1405.67 243.965V97.7305H1457.91V234.818C1457.91 252.27 1461.88 267.074 1469.34 277.545C1477.53 288.979 1489.68 294.997 1504.49 294.997C1537.35 294.997 1559.37 270.564 1559.37 234.336V97.7305H1611.12V326.41H1559.85V320.392C1559.85 313.772 1560.69 305.949 1562.26 298.367L1562.62 296.321L1556.48 294.154L1555.52 295.959C1541.44 322.318 1518.93 335.196 1486.67 335.196V335.076Z" fill="white"/>
<path d="M1948.25 326.41V190.285C1948.25 152.252 1932.24 129.625 1905.52 129.625C1878.8 129.625 1856.89 155.502 1856.89 192.693V326.41H1805.14V190.285C1805.14 151.771 1789.49 129.625 1762.41 129.625C1735.33 129.625 1714.27 155.021 1714.27 192.693V326.41H1662.52V97.7305H1714.27V104.711C1714.27 113.016 1713.67 120.598 1712.35 127.218L1711.98 129.264L1718.12 131.431L1719.09 129.625C1727.39 114.821 1746.77 89.9072 1784.08 89.9072C1821.39 89.9072 1834.15 110.97 1842.57 131.671L1845.34 138.411L1849.07 132.153C1860.63 112.655 1886.86 89.9072 1922.37 89.9072C1957.87 89.9072 2000 126.737 2000 181.499V326.29H1948.25V326.41Z" fill="white"/>
</svg>
